<?xml version="1.0" standalone="no"?>
<!DOCTYPE svg PUBLIC "-//W3C//DTD SVG 20010904//EN"
 "http://www.w3.org/TR/2001/REC-SVG-20010904/DTD/svg10.dtd">
<svg version="1.0" xmlns="http://www.w3.org/2000/svg"
 width="512.000000pt" height="512.000000pt" viewBox="0 0 512.000000 512.000000"
 preserveAspectRatio="xMidYMid meet">
<metadata>
Created by potrace 1.14, written by Peter Selinger 2001-2017
</metadata>
<g transform="translate(0.000000,512.000000) scale(0.100000,-0.100000)"
fill="#000000" stroke="none">
<path d="M1320 4179 c-148 -44 -177 -238 -48 -322 107 -69 255 0 271 126 16
126 -103 231 -223 196z"/>
<path d="M4213 4024 c-17 -9 -39 -32 -48 -51 -18 -37 -16 -53 31 -338 4 -29
104 -665 109 -695 2 -14 10 -68 19 -120 47 -292 73 -459 82 -520 3 -19 7 -48
11 -65 3 -16 7 -43 9 -60 1 -16 5 -45 8 -62 3 -18 8 -45 10 -60 3 -16 12 -71
20 -123 9 -52 18 -113 21 -135 3 -22 10 -65 15 -95 5 -30 12 -73 15 -95 4 -22
12 -78 20 -125 18 -112 20 -126 51 -325 20 -136 30 -174 46 -193 29 -30 78
-29 107 2 22 23 23 30 16 93 -4 37 -8 75 -10 83 -2 8 -6 44 -10 80 -3 36 -8
72 -10 80 -2 8 -7 40 -10 70 -3 30 -10 87 -15 125 -5 39 -12 88 -14 110 -10
77 -27 210 -31 235 -2 14 -7 49 -10 79 -4 30 -8 61 -10 70 -1 9 -6 48 -11 86
-4 39 -8 72 -9 75 -1 3 -5 37 -9 75 -4 39 -9 81 -11 95 -14 91 -26 193 -23
195 2 2 76 -68 166 -155 176 -172 205 -190 267 -170 53 17 85 62 85 118 0 60
-4 64 -230 243 -99 78 -180 146 -180 150 0 4 84 200 186 435 102 236 187 437
189 446 2 9 -5 28 -16 43 -24 29 -69 34 -90 9 -8 -9 -50 -88 -94 -174 -44 -87
-134 -264 -200 -394 -86 -168 -122 -230 -126 -218 -4 10 -10 47 -14 83 -3 35
-8 71 -10 79 -2 8 -7 44 -10 80 -4 36 -9 73 -11 84 -2 10 -6 44 -9 75 -3 31
-8 67 -10 81 -3 14 -7 48 -10 75 -3 28 -8 66 -11 86 -2 20 -7 54 -9 75 -3 22
-7 57 -11 79 -8 58 -12 83 -19 145 -20 169 -24 186 -55 215 -35 34 -93 42
-137 19z"/>
<path d="M1874 3703 c-17 -8 -38 -27 -46 -42 -13 -21 -34 -131 -63 -321 -2
-14 -17 -108 -34 -210 -16 -102 -33 -207 -37 -235 -3 -27 -7 -52 -9 -55 -2 -3
-6 -27 -9 -55 -12 -94 -53 -332 -59 -341 -3 -5 -57 -31 -120 -59 -123 -52
-148 -75 -126 -116 19 -37 47 -38 136 -6 46 17 85 28 87 26 3 -2 1 -24 -4 -49
-9 -46 -44 -266 -56 -352 -6 -43 -4 -49 21 -72 32 -29 61 -33 92 -11 27 19 31
32 93 320 l52 240 163 58 c90 31 168 57 173 57 4 0 111 -177 237 -392 125
-216 234 -399 241 -407 30 -33 94 -5 94 41 0 10 -50 132 -111 271 -245 554
-248 562 -236 569 7 3 98 37 202 73 105 37 204 74 222 82 32 15 63 64 58 92
-2 9 -4 21 -4 27 -1 6 -13 23 -27 38 -42 42 -74 35 -307 -64 -116 -49 -212
-88 -213 -87 -2 2 -32 119 -195 752 -23 88 -48 170 -55 182 -33 52 -104 73
-160 46z m136 -873 c32 -107 56 -198 52 -201 -12 -11 -225 -100 -229 -96 -2 3
19 107 47 233 60 274 61 282 66 269 2 -5 31 -98 64 -205z"/>
<path d="M1195 3604 c-22 -7 -41 -14 -42 -14 -7 -1 -42 -71 -46 -95 -6 -27
-39 -175 -173 -770 -25 -110 -47 -208 -49 -218 -2 -10 -6 -26 -9 -35 -3 -9 -7
-28 -10 -42 -2 -14 -34 -153 -69 -310 -36 -157 -89 -390 -118 -517 l-53 -233
-205 -1 c-323 -1 -362 -4 -378 -25 -18 -24 -16 -48 5 -66 15 -14 52 -22 202
-44 19 -3 87 -14 150 -24 162 -27 283 -44 298 -43 6 0 21 1 31 2 36 2 80 50
96 104 8 29 40 153 70 277 29 124 75 311 100 415 25 105 64 264 86 355 22 91
69 284 104 430 36 146 90 367 120 492 30 124 55 238 55 253 0 83 -83 138 -165
109z"/>
<path d="M3814 3292 c-16 -7 -36 -23 -45 -36 -11 -14 -38 -148 -79 -396 -34
-206 -64 -384 -66 -395 -2 -10 -6 -35 -9 -55 -3 -20 -8 -47 -10 -60 -3 -14 -8
-45 -11 -70 -6 -44 -11 -57 -17 -49 -2 2 -68 165 -147 362 -150 376 -162 397
-221 397 -63 0 -73 -22 -164 -340 -47 -162 -93 -320 -102 -350 -9 -30 -17 -68
-16 -83 2 -57 62 -86 109 -53 14 10 40 80 89 235 39 121 72 221 75 221 3 0 70
-177 149 -393 202 -548 189 -516 225 -538 55 -34 119 -20 150 32 10 18 40 161
76 376 33 192 62 359 64 373 3 14 14 81 26 150 11 69 23 139 26 155 3 17 20
118 39 225 l34 195 -21 43 c-30 64 -90 85 -154 54z"/>
</g>
</svg>
